<?xml version="1.0" encoding="UTF-8"?>
<svg id="Camada_2" data-name="Camada 2" xmlns="http://www.w3.org/2000/svg" viewBox="0 0 83.63 74.81">
  <defs>
    <style>
      .cls-1 {
        fill: #fff;
        stroke-width: 0px;
      }
    </style>
  </defs>
  <g id="Layer_1" data-name="Layer 1">
    <g>
      <path class="cls-1" d="m47.01,74.06c-5.17-3.98-9.91-8.41-13.91-13.59-4.19-5.43-7.32-11.36-8.53-18.2-.16-.91.15-1.2.92-1.45.78-.25,1.56-.49,2.34-.72-.09-1.38-.08-2.71.01-3.98-.93.27-1.85.54-2.77.83-.89.28-.96.25-.94-.72.08-3.6.81-7.07,2.19-10.39,3.27-7.85,9.05-13.47,16.12-17.89,5.35-3.34,11.15-5.66,17.2-7.39.3-.08.64-.1.96-.56-1.79.05-3.39.33-4.99.61-8.52,1.47-16.55,4.21-23.59,9.41-3.97,2.93-7.29,6.45-9.74,10.74-3.12,5.47-4.37,11.37-3.77,17.64.06.59-.11.85-.65,1.03-1.81.59-3.55,1.35-5.26,2.17-4.22,2.03-8.01,4.63-10.9,8.39-2.11,2.74-2.28,5.42-.5,7.87,1.17,1.61,2.83,2.63,4.59,3.42,6.02,2.7,12.41,3.21,18.9,3.04.1,0,.25,0,.25-.18-.11-.22-.33-.23-.53-.26-1.73-.28-3.44-.64-5.13-1.1-3.22-.88-6.38-1.92-9.04-4.04-1.69-1.35-2.84-3.04-2.7-5.34.16-2.64,1.66-4.55,3.61-6.09,2.28-1.79,4.99-2.83,7.63-4,.58-.25.65.13.76.52.56,2.04,1.29,4.01,2.2,5.92,2.76,5.72,6.65,10.56,11.32,14.85,4.18,3.84,8.8,7.03,13.7,9.86.27.16.54.45.94.31-.04-.1-.05-.17-.09-.21-.2-.17-.41-.34-.63-.5Z"/>
      <path class="cls-1" d="m58.98,9.26c.53.1,1.06.21,1.59.3,3.55.58,6.85,1.82,9.89,3.74,5.79,3.67,9.76,8.77,11.89,15.28.83,2.53,1.24,5.15,1.28,7.83.04,2.97-.32,5.87-1.19,8.71-1.21,3.94-3.17,7.47-5.93,10.53-2.19,2.42-4.7,4.42-7.58,5.96-2.59,1.38-5.33,2.3-8.21,2.85-2.48.47-4.97.46-7.45.32-2.27-.13-4.49-.65-6.64-1.41-4.33-1.52-8.1-3.95-11.23-7.31-3.8-4.09-6.19-8.9-7.14-14.41-.3-1.73-.47-3.49-.41-5.25.12-3.68.87-7.23,2.37-10.6,1.52-3.44,3.63-6.47,6.37-9.04,4.04-3.8,8.79-6.22,14.27-7.18.6-.1,1.19-.21,1.79-.31,2.11,0,4.22,0,6.34,0Zm23.59,27.75c.2-14.15-11.36-26.81-26.75-26.87-14.55-.06-26.9,11.61-26.9,26.84,0,14.94,11.91,26.92,26.83,26.91,15.59,0,26.97-12.79,26.82-26.88Z"/>
      <path class="cls-1" d="m29.54,36.95c-.09-13.95,11.12-26.21,26.38-26.16,14.45.05,26.1,11.61,26.08,26.2-.02,14.48-11.36,26.28-26.31,26.26-15.27-.03-26.3-12.47-26.14-26.29Zm26.2-25.15c-13.8-.1-25.22,11.3-25.19,25.2.02,14.02,11.41,25.22,25.16,25.25,13.37.03,25.12-10.65,25.28-25.27-.24-15.11-12.43-25.35-25.25-25.18Z"/>
      <path class="cls-1" d="m44.96,48.26c-.39,1.05-.74,1.98-1.08,2.91-.12.33-.27.65-.58.86-.49.34-.81.81-1.03,1.36-.06.15-.14.29-.24.41-.08.1-.19.17-.33.13-.15-.04-.2-.17-.19-.3.01-.16.05-.32.1-.47.63-1.88,1.24-3.77,1.91-5.63.14-.4.11-.65-.19-.93-.26-.24-.49-.51-.74-.76-1.18-1.17-2.33-2.38-3.55-3.51-.96-.89-1.79-1.91-2.82-2.73-.52-.42-.97-.92-1.37-1.47-.34-.46-.81-.81-1.21-1.22-.75-.77-.75-.78-.02-1.52.7-.71,1.4-1.41,2.1-2.11.16-.16.32-.32.49-.46.21-.17.38-.17.6.02.22.19.42.39.62.6,1.83,1.83,3.66,3.67,5.5,5.5.73.72,1.47,1.43,2.21,2.13.33.31.41.29.56-.17.46-1.36.91-2.73,1.37-4.1,1.82-5.43,3.63-10.86,5.45-16.29.16-.46.23-.88.03-1.38-.43-1.12-.32-2.23.53-3.14.88-.93,2.01-1.23,3.25-.93,1.27.3,2.06,1.09,2.37,2.37.15.62.03,1.21-.22,1.78-.16.35-.13.66-.01,1.01,2.23,6.64,4.45,13.29,6.67,19.93.09.27.18.55.28.82.14.37.27.4.54.15.23-.22.46-.45.69-.67,1.74-1.74,3.48-3.49,5.23-5.22.79-.79,1.6-1.56,2.41-2.34.38-.36.53-.36.89,0,.93.92,1.86,1.85,2.77,2.8.42.44.42.57-.04,1.03-.84.83-1.7,1.65-2.56,2.46-.32.31-.69.56-.9.98-.08.17-.24.3-.38.43-1.67,1.58-3.21,3.29-4.92,4.84-.33.3-.61.65-.91.98-.26.28-.52.56-.78.85.12.32.25.64.36.97.54,1.61,1.07,3.22,1.61,4.83.07.21.12.43.15.65,0,.07-.06.19-.13.23-.12.09-.26.02-.34-.08-.1-.12-.19-.26-.25-.41-.23-.54-.54-1.01-1.02-1.36-.4-.3-.59-.75-.76-1.2-.25-.66-.5-1.32-.76-1.97-.11-.28-.28-.32-.52-.12-.17.15-.34.29-.49.46-1.01,1.2-2.21,2.22-3.31,3.34-.79.8-1.54,1.62-2.4,2.35-.1.08-.19.18-.26.28-.88,1.29-2.14,2.18-3.29,3.2-.05.04-.1.08-.15.12-.28.19-.43.21-.68-.03-.73-.71-1.45-1.44-2.18-2.16-1.77-1.76-3.53-3.52-5.3-5.28-.77-.77-1.53-1.55-2.3-2.32-.15-.15-.32-.3-.53-.48Zm10.65-23.06c-.16.09-.18.22-.2.34-.15.91-.29,1.83-.44,2.74-.11.63-.23,1.26-.35,1.88-.05.24-.19.4-.43.47-.12.04-.24.09-.36.12-1.43.38-2.39,1.32-3.03,2.6-.27.54-.51,1.1-.73,1.67-.99,2.53-1.97,5.06-2.96,7.59-.06.17-.05.31.07.44.15.17.3.33.46.49,2.39,2.4,4.79,4.79,7.19,7.19.16.16.32.32.49.46.22.18.36.17.59-.02.07-.06.14-.13.21-.2,2.49-2.48,4.97-4.97,7.47-7.44.37-.36.47-.69.28-1.19-1.03-2.65-2.03-5.31-3.05-7.97-.17-.45-.37-.89-.63-1.29-.66-1.05-1.51-1.94-2.73-2.28-.73-.2-1.1-.54-1.13-1.29,0-.22-.07-.44-.11-.66-.21-1.22-.41-2.43-.62-3.66Zm.21-5.38c1.54.04,2.3-1.55,1.68-2.68-.34-.61-.87-.94-1.54-1-1.03-.1-2.33.7-2.12,2.11.13.93.95,1.58,1.98,1.57Z"/>
    </g>
  </g>
</svg>