<?xml version="1.0" encoding="UTF-8"?>
<svg id="Camada_2" data-name="Camada 2" xmlns="http://www.w3.org/2000/svg" viewBox="0 0 83.87 74.81">
  <defs>
    <style>
      .cls-1 {
        fill: #fff;
        stroke-width: 0px;
      }
    </style>
  </defs>
  <g id="Layer_1" data-name="Layer 1">
    <g>
      <path class="cls-1" d="m47.01,74.06c-5.17-3.98-9.91-8.41-13.91-13.59-4.19-5.43-7.32-11.36-8.53-18.2-.16-.91.15-1.2.92-1.45.78-.25,1.56-.49,2.34-.72-.09-1.38-.08-2.71.01-3.98-.93.27-1.85.54-2.77.83-.89.28-.96.25-.94-.72.08-3.6.81-7.07,2.19-10.39,3.27-7.85,9.05-13.47,16.12-17.89,5.35-3.34,11.15-5.66,17.2-7.39.3-.08.64-.1.96-.56-1.79.05-3.39.33-4.99.61-8.52,1.47-16.55,4.21-23.59,9.41-3.97,2.93-7.29,6.45-9.74,10.74-3.12,5.47-4.37,11.37-3.77,17.64.06.59-.11.85-.65,1.03-1.81.59-3.55,1.35-5.26,2.17-4.22,2.03-8.01,4.63-10.9,8.39-2.11,2.74-2.28,5.42-.5,7.87,1.17,1.61,2.83,2.63,4.59,3.42,6.02,2.7,12.41,3.21,18.9,3.04.1,0,.25,0,.25-.18-.11-.22-.33-.23-.53-.26-1.73-.28-3.44-.64-5.13-1.1-3.22-.88-6.38-1.92-9.04-4.04-1.69-1.35-2.84-3.04-2.7-5.34.16-2.64,1.66-4.55,3.61-6.09,2.28-1.79,4.99-2.83,7.63-4,.58-.25.65.13.76.52.56,2.04,1.29,4.01,2.2,5.92,2.76,5.72,6.65,10.56,11.32,14.85,4.18,3.84,8.8,7.03,13.7,9.86.27.16.54.45.94.31-.04-.1-.05-.17-.09-.21-.2-.17-.41-.34-.63-.5Z"/>
      <g>
        <path class="cls-1" d="m83.87,38.39c.07,15.4-12.46,27.99-27.93,27.97-15.21-.02-27.86-12.35-27.84-27.96.01-7.65,2.81-14.23,8.21-19.65,5.42-5.43,12.06-8.13,19.68-8.14,7.63-.01,14.28,2.71,19.69,8.13,5.39,5.41,8.12,12,8.2,19.66Zm-27.96,26.92c14.56.22,26.86-11.85,26.91-26.78.05-14.8-12.08-26.84-26.72-26.93-14.07-.08-26.91,11.26-26.96,26.79-.05,15.44,12.72,27.11,26.77,26.92Z"/>
        <path class="cls-1" d="m29.77,38.44c-.16-14.11,11.42-26.2,26.28-26.18,14.16.02,26.05,11.32,26.21,26.23-.2,7.22-2.66,13.51-7.8,18.65-5.1,5.09-11.36,7.58-18.51,7.58-7.16,0-13.38-2.55-18.5-7.61-4.77-4.7-7.81-11.56-7.68-18.67Zm25.54-25.16c-2.44-.04-4.97.46-7.54,1.34-4.17,1.43-7.72,3.83-10.66,7.11-1.56,1.75-2.87,3.68-3.88,5.81-1.74,3.68-2.56,7.54-2.44,11.62.06,1.9.29,3.76.75,5.59,1.96,7.84,7.68,14.31,15.21,17.25,2.95,1.15,6.01,1.72,9.18,1.73.9,0,1.78-.06,2.68-.15,1.6-.16,3.16-.46,4.69-.93,4.74-1.45,8.72-4.07,11.92-7.87,2.3-2.73,3.95-5.81,4.94-9.23.79-2.72,1.12-5.5.95-8.34-.08-1.28-.19-2.55-.46-3.8-1.21-5.82-4.11-10.65-8.69-14.42-4.61-3.79-9.93-5.72-16.67-5.71Z"/>
        <g>
          <path class="cls-1" d="m79.12,31.29c.08.17-.03.26-.11.35-2.54,2.75-5.39,5.1-8.75,6.79-2.34,1.18-4.81,1.91-7.43,2.12-1.08.09-2.17.11-3.26-.07-.31-.05-.64-.06-.96-.05-.32,0-.46.15-.49.47-.07.75.08,1.48.42,2.14,1.06,2.06,2.68,3.48,4.92,4.15.52.16,1.06.26,1.58.41.32.1.8.13.81.54.01.47-.49.53-.84.65-.67.22-1.36.35-2.06.45-2,.29-4,.43-6.02.39-1.09-.02-2.18.03-3.26-.03-1.82-.09-3.64-.2-5.43-.57-.37-.08-.74-.2-1.1-.33-.18-.06-.34-.2-.33-.42.01-.17.14-.29.3-.34.36-.13.72-.26,1.09-.36.75-.2,1.46-.45,2.11-.88,1.9-1.25,2.96-3.05,3.45-5.23.1-.47.21-.93.21-1.42,0-.46-.15-.8-.58-1.01-1.73-.86-3.21-2.1-4.78-3.21-.97-.68-1.93-1.38-2.91-2.03-1.02-.68-2.13-1.17-3.32-1.48-1.39-.35-2.74-.26-4.03.34-2.46,1.15-4.07,3.04-4.74,5.69-.12.47-.13.95-.07,1.43.12,1.06.83,1.73,1.9,1.83.77.07,1.53-.05,2.28-.24.25-.06.5-.11.75-.16.04,0,.12.06.13.09,0,.05-.03.13-.08.16-.78.38-1.63.55-2.48.71-.59.11-1.14.08-1.71-.06-1.22-.31-1.83-1.07-1.86-2.34-.11-3.89,2.64-7.58,6.46-8.68,2.05-.59,4.11-.56,6.17-.11,1.97.43,3.9,1.01,5.84,1.54,2.37.65,4.73,1.35,7.14,1.87,1.91.41,3.82.75,5.77.93,1.09.1,2.17.16,3.25.14,1.51-.02,2.99-.25,4.42-.77.54-.2,1.07-.43,1.57-.72.14-.08.29-.13.44-.18.04-.01.1.05.15.09.02.01.02.07,0,.09-.13.28-.38.43-.62.59-.91.63-1.94,1-3.01,1.19-1.92.35-3.86.49-5.82.27-1.24-.14-2.48-.24-3.71-.41-2.19-.3-4.35-.74-6.48-1.3-1.58-.41-3.14-.87-4.71-1.31-.3-.08-.61-.17-.92-.25-.03.25.16.29.27.37,1.8,1.28,3.56,2.61,5.48,3.72,1.36.79,2.77,1.47,4.33,1.78.75.15,1.5.28,2.28.31,4.23.2,8.08-1.02,11.74-3.02,2.17-1.19,4.12-2.69,6.01-4.28.18-.15.33-.39.61-.38Zm-23.09,10.21c-.64,1.85-1.38,3.61-2.53,5.18-.1.14,0,.3.19.34,1.42.28,2.86.25,4.29.08.16-.02.32-.05.47-.09.18-.04.24-.2.14-.37-.35-.57-.73-1.13-1.06-1.71-.62-1.08-1.08-2.24-1.5-3.43Z"/>
          <path class="cls-1" d="m42.88,28.75c.19-.23.38-.14.55-.1,1.94.55,3.91.93,5.88,1.37,1.9.43,3.82.78,5.75,1.02,1.11.14,2.22.28,3.34.26.64-.01,1.28.09,1.91.09,1.02,0,2.05-.02,3.03-.34.96-.31,1.57-.95,1.79-1.95.08-.37.16-.75.25-1.12,0-.04.09-.09.14-.09.05,0,.13.05.15.09.48,1.17-.06,2.87-1.14,3.58-.38.25-.79.43-1.22.54-.9.22-1.8.43-2.74.44-.32,0-.64.05-.96.07-.25.02-.51.07-.76.05-1.81-.13-3.63-.22-5.42-.58-3.3-.65-6.5-1.64-9.62-2.89-.31-.13-.65-.23-.92-.46Z"/>
          <path class="cls-1" d="m55.67,27.3c1.52.12,3.04.52,4.35,1.54.2.16.39.33.56.52.11.11.27.26.17.41-.14.23-.33.06-.49-.01-.32-.15-.63-.32-.95-.46-2.5-1.11-5-1.11-7.51,0-.2.09-.4.21-.6.29-.22.08-.49.39-.65.12-.14-.23.22-.42.4-.58,1.31-1.18,2.87-1.75,4.71-1.82Z"/>
        </g>
      </g>
    </g>
  </g>
</svg>