<?xml version="1.0" encoding="UTF-8"?>
<svg id="Camada_2" data-name="Camada 2" xmlns="http://www.w3.org/2000/svg" viewBox="0 0 83.59 74.81">
  <defs>
    <style>
      .cls-1 {
        fill: #fff;
        stroke-width: 0px;
      }
    </style>
  </defs>
  <g id="Layer_1" data-name="Layer 1">
    <g>
      <path class="cls-1" d="m83.59,37.29c.11,15.19-12.31,27.97-27.95,27.95-14.91-.02-27.8-12-27.82-27.98,0-7.64,2.8-14.24,8.22-19.65,5.46-5.45,12.13-8.14,19.78-8.12,7.59.02,14.21,2.74,19.58,8.14,5.39,5.42,8.1,12.01,8.17,19.67Zm-27.9,26.9c14.53.21,26.77-11.91,26.87-26.73.09-14.61-11.96-26.98-26.87-26.98-14.01,0-26.79,11.25-26.82,26.83-.03,15.65,12.96,27.1,26.82,26.88Z"/>
      <path class="cls-1" d="m29.47,37.3c-.07-14.35,11.69-26.24,26.4-26.17,14.19.07,26.04,11.48,26.11,26.3-.2,7.22-2.68,13.49-7.83,18.61-5.11,5.08-11.37,7.55-18.51,7.54-7.22-.01-13.52-2.59-18.61-7.77-5.03-5.12-7.49-11.35-7.55-18.52Zm26.35-25.14c-13.71-.22-25.23,11.12-25.32,24.97-.08,13.71,10.73,25.23,24.75,25.46,14.25.24,25.58-11.04,25.66-25.04.08-14.93-12.09-25.54-25.09-25.39Z"/>
      <g>
        <path class="cls-1" d="m59.37,38.9c.26.3.64.42.96.62.44.28.69.66.71,1.18,0,.13-.04.27-.18.31-.08.02-.2.02-.27-.03-.21-.15-.39-.33-.59-.49-.22-.18-.46-.35-.75-.4-.28-.05-.51.19-.43.46.15.48.77,1,1.24.87.7-.19,1.17.13,1.64.54.14.13.28.26.48.3.55.11.8.48.88,1,.02.12.07.24.12.44.18-.19.13-.37.09-.52-.14-.68-.53-1.22-1.03-1.69-.23-.22-.46-.44-.67-.68-.14-.17-.03-.39.18-.43.34-.06.65.02.88.27.6.67,1.18,1.34,1.35,2.28.12.66.29,1.31.43,1.92.16.1.22.03.25-.07.04-.15.04-.34.25-.35.14,0,.23.1.31.2.72,1.03.63,2.73-.22,3.63-.19.2-.24.44-.4.64-.23.3-.6.24-.76-.11-.13-.28-.13-.56-.08-.84.03-.22.07-.44.07-.66,0-.17-.1-.35-.27-.34-.59.03-.87-.31-1.06-.79-.02-.05-.09-.07-.17-.12-.14.27-.05.5.13.69.22.23.48.42.72.63.26.22.42.45.3.83-.09.27-.07.57-.13.85-.14.64-.94.88-1.43.43-.07-.06-.13-.14-.19-.22-.2-.23-.18-.7-.54-.73-.31-.02-.59-.15-.91-.21,0,.09,0,.12.01.15.08.2.27.38.13.62-.13.24-.36.37-.62.39-.35.02-.7,0-1.05,0-.31,0-.5-.23-.69-.46-.5.59-1.12.71-1.83.53-.4-.1-.4-.11-.43-.7-.26-.04-.49.1-.72.17-1.54.49-3.11.75-4.72.67-1.1-.06-2.15-.32-3.12-.86-.4-.22-.75-.49-1.05-.83-.57-.64-.69-1.36-.34-2.14.1-.23.23-.46.38-.66.79-1.02,1.81-1.7,3.05-2.06.09-.03.19-.03.28-.02.05,0,.13.05.15.1.02.05.02.14-.02.18-.15.16-.32.31-.48.46-.3.28-.63.55-.91.85-.29.31-.45.69-.47,1.13-.05.83.38,1.48,1.2,1.59,2.5.34,4.79-.05,6.57-2.06.11-.12.21-.24.31-.36q.53-.62,1.17-.07s.06.02.1.04c.16-.18-.02-.28-.12-.36-.52-.45-.92-.97-1.06-1.82-.17.43-.27.74-.42,1.03-.16.31-.35.62-.56.89-1.19,1.51-2.78,2.2-4.66,2.29-.53.02-1.01-.14-1.45-.43-.51-.34-.62-.76-.38-1.33.18-.42.45-.78.78-1.08.44-.41.89-.84,1.47-1.06.32-.13.44-.34.45-.65.02-.48,0-.96-.15-1.42-.17-.55-.34-1.1-.49-1.66-.19-.75-.1-.9.61-1.12.48-.15.99-.25,1.41-.59-.19.05-.39.11-.58.16-.22.06-.43.12-.65.17-.22.05-.44.08-.66.12-.87.15-1.72.1-2.57-.13-.73-.2-1.01-.6-.9-1.34.05-.35.11-.69.05-1.05-.08-.52-.06-.52.41-.93-.53-.49-.54-.48-.7-1.26-.07-.33-.24-.59-.43-.84-.32-.42-.29-.84.03-1.23,1.07-1.31.97-1.36,1.01-3.08,0-.41.08-.83.14-1.24.03-.23.14-.43.29-.6.29-.34.71-.47,1.12-.29.98.41,1.85,1,2.69,1.65.23.18.34.46.45.73.12.3.21.62.38.88.38.56.7,1.14.78,1.83.03.29.2.54.42.74.57.51,1.08,1.09,1.81,1.4.2.08.37.25.55.38h0c-.04.59.15,1.1.54,1.57.39.47.6,1.05.75,1.64.07.26.07.51-.22.66-.38.19-.47.51-.38.89.12.49.06,1.03.32,1.49.07.12.19.19.32.1.06-.04.11-.17.1-.24-.03-.19-.09-.37-.14-.55-.06-.22-.07-.44-.01-.66.1-.38.38-.5.72-.31.22.13.44.26.65.39.16.09.32.17.48.26Zm3.4,5.71c.13.5.39.93.77,1.28.04.03.12.05.17.03.03,0,.05-.12.03-.15-.32-.39-.65-.77-.97-1.15-.08-.37-.21-.72-.4-1.05-.1-.18-.27-.26-.47-.23-.09.01-.19.05-.24.11-.07.08-.01.19.06.25.35.31.71.61,1.06.92Zm-7.83-4.29c.17-.9.35-1.69.45-2.5.07-.57.04-1.15,0-1.72-.03-.43-.13-.87-.55-1.25-.15.4-.03.78-.25,1.07-.21.27-.41.53-.64.83.13.01.19.03.25.02.58-.03.72.08.66.6-.06.47-.14.95-.23,1.42-.1.52,0,.99.31,1.54Zm-4.53-11.65c-.48-.64-1.05-.87-1.7-.68-.18.05-.27.2-.23.37.11.5.24.99.39,1.48.03.11.15.23.26.26.4.12.8.02,1.07-.25.24-.24-.14-.43-.23-.65-.03-.06-.06-.11-.08-.17-.09-.2.02-.33.28-.34.09,0,.18.07.26-.02Zm7.23,15.24s-.09.06-.14.09c.11.23.22.45.33.68.35.8.25,1.2-.44,1.74-.25.19-.52.37-.78.56-.16.12-.18.27-.05.4.1.1.23.15.34.06.51-.43,1-.89,1.42-1.41.23-.28.22-.59.05-.89-.23-.41-.48-.81-.73-1.22Zm-1.87-1.95c.08-.22.05-.41-.03-.58-.02-.04-.1-.09-.15-.08-.04,0-.11.08-.1.12.03.2.06.42.29.54Z"/>
        <path class="cls-1" d="m56.24,33.67c0-.16-.01-.32-.03-.48-.04-.31-.04-.32-.42-.21-.13.04-.26.04-.36-.04-.78-.56-1.25-1.36-1.62-2.21-.05-.1-.01-.25,0-.37.04-.24.09-.49.13-.71-.11-.06-.16-.11-.22-.11-.64.02-.89-.41-1.08-.91-.14-.38-.11-.47.29-.77.08-.06.18-.1.12-.2-.04-.07-.15-.15-.22-.15-.46,0-.89-.07-1.28-.33-.3-.2-.57-.41-.58-.82-.01-.3-.21-.45-.49-.49-.19-.03-.43-.02-.5-.22-.16-.44-.44-.37-.76-.23-.15.06-.3.12-.45.16-.35.09-.64-.1-.7-.46-.09-.5.19-.97.67-1.14.09-.03.21-.06.28-.02.6.36,1.29.32,1.94.48,1.12.27,1.92.95,2.68,1.77.13-.42-.1-.66-.38-.89-.91-.73-1.91-1.29-3.04-1.58-.31-.08-.62-.14-.93-.22-.27-.06-.47-.22-.53-.49-.08-.37-.14-.75-.18-1.13-.02-.23.17-.42.41-.45.16-.02.32,0,.47.01,1.13.13,2.17.55,3.11,1.18,2.19,1.45,3.98,3.3,5.28,5.6.16.28.33.55.49.82.07.31.15.62.22.93.09.42,0,.61-.35.79-.53.27-.71.22-1.02-.29-.23-.38-.44-.78-.66-1.17-.18-.3-.37-.6-.56-.89-.09-.14-.21-.25-.38-.25-.09,0-.19.04-.25.1-.07.07-.06.19.02.25.14.12.3.24.46.34.3.17.44.41.48.77.05.47.2.93.31,1.4.05.24.16.41.44.43.13.01.22.11.3.21.06.07.02.23.18.23.07-.31.24-.54.48-.72.48-.37,1.34-.43,1.72.33.07.14.06.35.29.46-.02-.43-.21-.72-.46-.97-.35-.34-.58-.76-.78-1.2-.12-.26-.28-.5-.42-.75-.23-1.03-.83-1.87-1.41-2.7-.6-.87-1.3-1.66-2.06-2.4-.6-.59-1.27-1.06-1.98-1.51-.23-.14-.59-.27-.49-.62.07-.25.4-.27.65-.33,2.96-.74,5.65-.19,8,1.78,1.57,1.32,2.55,3.01,2.9,5.05.02.09.03.18.08.27.07-.4.03-.78-.09-1.17-.38-1.27-.94-2.44-1.77-3.48-1.24-1.55-2.84-2.43-4.8-2.73-.86-.13-1.72-.21-2.58-.15-.67.05-1.33.18-1.99.27-.57.08-.76-.02-.95-.54-.33-.89-.19-1.24.71-1.51,1.36-.41,2.76-.57,4.17-.42,1.71.17,3.3.73,4.76,1.66,1.26.81,2.27,1.86,3.01,3.17.48.85.75,1.75.82,2.73.07,1.09.07,2.17-.19,3.24-.09.34-.19.68-.41.96-.2.27-.35.27-.7-.06-.08.28-.16.54-.23.8-.36,1.24-1.09,2.23-2.08,3.04-.3.25-.64.43-1,.55-.38.13-.59.01-.74-.38-.12-.3-.14-.62-.15-.94-.01-.28-.03-.55-.04-.85-1.02.45-1.08.45-2.05-.02-.19.26-.16.6-.26.88-.11.33-.2.67-.32,1-.07.2-.33.2-.47.04-.26-.3-.26-.72-.44-1.05,0,0,0,.01,0,.01Z"/>
        <path class="cls-1" d="m55.58,50.13c3.52,0,7.03,0,10.55,0,1.31,0,1.31,0,1.32,1.35,0,.45,0,.9-.01,1.34-.03.62-.19.78-.82.83-.38.03-.77.02-1.15.02-5.63,0-11.25,0-16.88,0-1.31,0-2.62,0-3.93,0-1.07,0-1.13-.07-1.14-1.15,0-.61,0-1.22.02-1.82.02-.37.17-.52.53-.56.32-.03.64-.03.96-.03,3.52,0,7.03,0,10.55,0Z"/>
        <path class="cls-1" d="m54.82,17.99c-.09.08-.18.13-.23.2-.24.34-.53.45-.91.22-.28-.17-.48-.1-.63.18-.18.33-.44.33-.73.18-.27-.14-.49-.1-.64.19-.15.29-.39.3-.65.19-.36-.14-.72-.26-1.07-.42-.42-.19-.44-.42-.03-.68,1.27-.84,2.65-1.4,4.13-1.73,1.33-.3,2.66-.25,4,0,2.11.39,4.06,1.16,5.71,2.55,2.27,1.91,3.6,4.36,4.04,7.3.11.76.2,1.52.18,2.29-.03,1.29-.21,2.55-.69,3.75-.45,1.11-.67,2.27-.63,3.46.02.81-.12,1.59-.33,2.36-.26.94-.34,1.88-.12,2.84.07.3.19.71-.1.89-.34.21-.67-.08-.94-.29-.73-.58-1.02-1.37-.99-2.28,0-.25.06-.51.08-.76.08-.96.06-1.91-.37-2.82-.16-.34-.26-.72-.34-1.1-.14-.66.07-1.01.7-1.27.09-.04.19-.04.28-.07.18-.06.24-.2.23-.37,0-.03-.01-.06-.02-.09-.15-.44-.06-.74.42-.89.22-.06.25-.23.19-.46-.16-.63-.15-.64.39-.96.05-.03.11-.07.16-.11.07-.15-.06-.22-.13-.32-.29-.44-.28-.55.07-.9.07-.07.16-.11.22-.18.04-.04.06-.11.09-.16-.03-.06-.05-.12-.08-.17q-.42-.52-.05-1.03.2-.27-.04-.54s-.05-.04-.07-.06c-.34-.39-.37-.44-.07-.92.17-.26.13-.4-.12-.53-.36-.18-.43-.46-.28-.8.13-.31.02-.48-.26-.6-.33-.14-.35-.4-.29-.72.09-.43.07-.46-.36-.6-.33-.1-.44-.3-.45-.63,0-.42-.02-.44-.45-.54-.29-.07-.48-.19-.49-.49-.02-.34-.15-.53-.53-.51-.33.01-.54-.17-.63-.48-.09-.3-.26-.42-.57-.34-.29.07-.52-.01-.61-.3-.12-.36-.32-.52-.72-.39-.28.09-.49-.06-.61-.32-.09-.2-.23-.34-.45-.21-.49.29-.84.16-1.11-.31-.03-.05-.1-.07-.19-.12-.09.05-.2.12-.31.17-.49.25-.5.26-.9-.13-.17-.16-.29-.24-.46-.02-.04.05-.08.1-.13.14-.35.27-.46.27-.84-.02-.1-.08-.18-.17-.28-.27Z"/>
        <path class="cls-1" d="m55.53,56.63c2.18,0,4.35,0,6.53,0,1.1,0,1.14.04,1.15,1.12,0,.51-.02,1.02,0,1.54.01.53-.24.84-.73.99-.03,0-.06.02-.09.04-.66.25-.8.15-.84-.53-.01-.29-.01-.58-.04-.86-.03-.22-.09-.44-.24-.62-.14-.18-.44-.16-.57.03-.15.22-.18.48-.19.73-.02.42-.01.83-.05,1.25-.04.47-.16.59-.64.68-.13.02-.25.04-.38.05-.27.02-.45-.1-.48-.35-.04-.32-.03-.64-.04-.96-.01-.32-.02-.64-.03-.96-.01-.23-.1-.43-.24-.61-.14-.18-.43-.19-.6-.04-.25.23-.36.53-.38.86-.02.35-.02.7-.03,1.06,0,.26,0,.51-.03.77-.05.43-.28.59-.74.53-.26-.03-.42-.16-.45-.42-.03-.35-.04-.7-.04-1.05,0-.42-.02-.83-.15-1.23-.06-.19-.14-.36-.29-.49-.23-.2-.55-.21-.79,0-.26.23-.37.52-.38.85-.01.38-.02.77-.03,1.15,0,.26,0,.51-.04.77-.04.35-.25.53-.56.54-.32.02-.57-.14-.63-.46-.07-.38-.1-.76-.13-1.14-.03-.35,0-.7-.04-1.05-.04-.45-.22-.67-.53-.68-.3-.02-.49.17-.64.61-.1.31-.09.63-.1.95,0,.35,0,.7-.03,1.05-.03.28-.26.43-.55.41-.43-.03-.71-.26-.87-.65-.13-.3-.13-.62-.13-.94,0-.35-.01-.7-.05-1.05-.02-.16-.11-.3-.3-.33-.18-.02-.3.07-.41.2-.13.16-.16.35-.17.54-.01.32,0,.64-.03.96-.04.6-.22.71-.81.52-.06-.02-.12-.04-.18-.06-.49-.15-.75-.46-.75-.98,0-.64-.02-1.28,0-1.92.03-.66.16-.78.81-.8.54-.02,1.09,0,1.63,0,1.76,0,3.52,0,5.28,0Z"/>
        <path class="cls-1" d="m55.47,54.2c3.36,0,6.72,0,10.08,0,.38,0,.84-.18,1.12.27-.16.42-.58.46-.91.63-1.29.62-2.64.88-4.08.87-4.22-.04-8.44-.04-12.67-.01-1.18,0-2.29-.17-3.34-.69-.43-.21-.86-.41-1.29-.62-.04-.02-.09-.12-.08-.16.03-.08.09-.18.16-.21.3-.13.63-.08.95-.08,3.36,0,6.72,0,10.08,0Z"/>
        <path class="cls-1" d="m59.37,38.9c-.16-.09-.32-.17-.48-.26-.16-.24-.32-.48-.49-.71-.85-1.12-1.01-2.39-.83-3.74.02-.15.09-.31.15-.45.04-.08.12-.16.23-.11.06.02.13.06.15.11.08.28.15.55.21.83.16.76.44,1.47.92,2.09.24.31.51.58.88.71.11.04.25.04.37.04.05,0,.12-.06.14-.1.02-.05.02-.14-.02-.18-.09-.09-.2-.15-.3-.23-.13-.11-.2-.25-.14-.42.05-.16.18-.26.34-.3.3-.08.61.04.75.29.07.14.14.3.15.45.03.43.15.8.46,1.13.27.28.28.64.19.99-.16.62-.79.81-1.26.37-.12-.11-.2-.26-.18-.43.03-.22.21-.2.37-.21.17,0,.32-.05.35-.25.02-.14-.04-.25-.14-.34-.13-.12-.29-.16-.44-.04-.15.12-.3.25-.39.42-.24.42-.6.43-1,.33Z"/>
      </g>
      <path class="cls-1" d="m47.01,74.06c-5.17-3.98-9.91-8.41-13.91-13.59-4.19-5.43-7.32-11.36-8.53-18.2-.16-.91.15-1.2.92-1.45.78-.25,1.56-.49,2.34-.72-.09-1.38-.08-2.71.01-3.98-.93.27-1.85.54-2.77.83-.89.28-.96.25-.94-.72.08-3.6.81-7.07,2.19-10.39,3.27-7.85,9.05-13.47,16.12-17.89,5.35-3.34,11.15-5.66,17.2-7.39.3-.08.64-.1.96-.56-1.79.05-3.39.33-4.99.61-8.52,1.47-16.55,4.21-23.59,9.41-3.97,2.93-7.29,6.45-9.74,10.74-3.12,5.47-4.37,11.37-3.77,17.64.06.59-.11.85-.65,1.03-1.81.59-3.55,1.35-5.26,2.17-4.22,2.03-8.01,4.63-10.9,8.39-2.11,2.74-2.28,5.42-.5,7.87,1.17,1.61,2.83,2.63,4.59,3.42,6.02,2.7,12.41,3.21,18.9,3.04.1,0,.25,0,.25-.18-.11-.22-.33-.23-.53-.26-1.73-.28-3.44-.64-5.13-1.1-3.22-.88-6.38-1.92-9.04-4.04-1.69-1.35-2.84-3.04-2.7-5.34.16-2.64,1.66-4.55,3.61-6.09,2.28-1.79,4.99-2.83,7.63-4,.58-.25.65.13.76.52.56,2.04,1.29,4.01,2.2,5.92,2.76,5.72,6.65,10.56,11.32,14.85,4.18,3.84,8.8,7.03,13.7,9.86.27.16.54.45.94.31-.04-.1-.05-.17-.09-.21-.2-.17-.41-.34-.63-.5Z"/>
    </g>
  </g>
</svg>