<?xml version="1.0" encoding="UTF-8"?>
<svg id="Camada_2" data-name="Camada 2" xmlns="http://www.w3.org/2000/svg" viewBox="0 0 82.99 74.81">
  <defs>
    <style>
      .cls-1 {
        fill: #fff;
        stroke-width: 0px;
      }
    </style>
  </defs>
  <g id="Layer_1" data-name="Layer 1">
    <g>
      <path class="cls-1" d="m82.99,41.2c-.04.12-.09.24-.11.37-.45,3.92-1.86,7.5-3.98,10.79-4.13,6.4-9.93,10.47-17.34,12.23-2.7.64-5.44.84-8.19.63-6.22-.49-11.72-2.76-16.41-6.9-4.32-3.81-7.18-8.53-8.62-14.11-.37-1.46-.63-2.93-.74-4.44-.06-.86-.16-1.72-.14-2.58.13-6.42,2.11-12.19,6.14-17.2,4.16-5.18,9.52-8.46,16.01-9.87,1.18-.26,2.38-.45,3.6-.48.64-.02,1.27-.14,1.91-.14,6.97.07,13.19,2.2,18.49,6.81,4.8,4.17,7.82,9.4,9.14,15.61.11.53.02,1.09.24,1.61v7.68Zm-27.71,23.03c14.6.24,26.82-11.88,26.94-26.65.12-14.77-12-26.97-26.69-27.06-14.06-.09-26.92,11.15-26.99,26.75-.07,15.74,12.94,27.14,26.74,26.96Z"/>
      <path class="cls-1" d="m29.15,37.32c-.07-14.3,11.7-26.28,26.52-26.14,14.07.14,25.86,11.42,25.99,26.23-.19,7.25-2.66,13.56-7.86,18.7-5.12,5.07-11.38,7.54-18.52,7.52-7.19-.02-13.46-2.57-18.54-7.72-5.06-5.14-7.55-11.38-7.6-18.59Zm26.33-25.12c-1.7-.02-3.39.11-5.05.45-4.62.95-8.67,3.02-12.15,6.2-2.64,2.41-4.63,5.28-6.06,8.55-1.08,2.48-1.76,5.08-1.95,7.78-.16,2.23-.09,4.47.31,6.69.92,5.09,3.19,9.49,6.77,13.2,2.45,2.54,5.35,4.45,8.63,5.77,2.54,1.02,5.19,1.59,7.92,1.77,1.88.13,3.76-.02,5.63-.33,4.91-.8,9.18-2.9,12.85-6.23,2.64-2.4,4.65-5.26,6.09-8.52,1.45-3.27,2.11-6.7,2.14-10.25.01-1.63-.19-3.25-.52-4.85-1.18-5.83-4.07-10.67-8.63-14.46-4.62-3.84-9.96-5.78-15.99-5.77Z"/>
      <path class="cls-1" d="m47.01,74.06c-5.17-3.98-9.91-8.41-13.91-13.59-4.19-5.43-7.32-11.36-8.53-18.2-.16-.91.15-1.2.92-1.45.78-.25,1.56-.49,2.34-.72-.09-1.38-.08-2.71.01-3.98-.93.27-1.85.54-2.77.83-.89.28-.96.25-.94-.72.08-3.6.81-7.07,2.19-10.39,3.27-7.85,9.05-13.47,16.12-17.89,5.35-3.34,11.15-5.66,17.2-7.39.3-.08.64-.1.96-.56-1.79.05-3.39.33-4.99.61-8.52,1.47-16.55,4.21-23.59,9.41-3.97,2.93-7.29,6.45-9.74,10.74-3.12,5.47-4.37,11.37-3.77,17.64.06.59-.11.85-.65,1.03-1.81.59-3.55,1.35-5.26,2.17-4.22,2.03-8.01,4.63-10.9,8.39-2.11,2.74-2.28,5.42-.5,7.87,1.17,1.61,2.83,2.63,4.59,3.42,6.02,2.7,12.41,3.21,18.9,3.04.1,0,.25,0,.25-.18-.11-.22-.33-.23-.53-.26-1.73-.28-3.44-.64-5.13-1.1-3.22-.88-6.38-1.92-9.04-4.04-1.69-1.35-2.84-3.04-2.7-5.34.16-2.64,1.66-4.55,3.61-6.09,2.28-1.79,4.99-2.83,7.63-4,.58-.25.65.13.76.52.56,2.04,1.29,4.01,2.2,5.92,2.76,5.72,6.65,10.56,11.32,14.85,4.18,3.84,8.8,7.03,13.7,9.86.27.16.54.45.94.31-.04-.1-.05-.17-.09-.21-.2-.17-.41-.34-.63-.5Z"/>
      <g id="BDOgmr.tif">
        <path class="cls-1" d="m67.98,15.58c.04.15-.02.29-.08.42-.57,1.14-1.01,2.35-1.59,3.49-.73,1.44-1.31,2.95-1.98,4.42-1.51,3.33-3.01,6.66-4.53,9.98-.15.33-.28.67-.41,1.01-.08.22-.06.24.16.24,1.91,0,3.81-.04,5.72-.05.91,0,1.82-.02,2.73-.03.6,0,1.2-.02,1.8-.03.07,0,.16-.03.19.04.04.08-.04.13-.09.19-.72.89-1.48,1.75-2.23,2.62-1.13,1.3-2.26,2.6-3.38,3.91-.8.94-1.62,1.86-2.43,2.79-1.25,1.44-2.5,2.89-3.75,4.34-1.45,1.68-2.89,3.36-4.36,5.03-.85.96-1.66,1.95-2.49,2.92-.72.84-1.45,1.68-2.17,2.52-.32.38-.62.77-.98,1.11-.08.07-.18.22-.27.17-.1-.06,0-.21.04-.31.21-.57.46-1.12.7-1.68.71-1.68,1.47-3.35,2.15-5.05.14-.35.29-.69.44-1.04.1-.23.07-.32-.18-.4-.35-.11-.7-.2-1.05-.3-.19-.06-.38-.13-.58-.17-.17-.04-.23-.12-.19-.31.12-.58.24-1.17.3-1.76.02-.16-.01-.24-.16-.31-.78-.37-1.52-.83-2.22-1.34-.14-.1-.24-.11-.39-.01-.33.21-.64.46-.96.7-.16.12-.32.22-.49.31-.13.07-.21.05-.31-.06-.48-.52-.96-1.04-1.44-1.56-.17-.18-.34-.37-.52-.54-.13-.12-.12-.22-.03-.35.2-.29.45-.54.67-.81.15-.18.29-.36.44-.54.08-.09.08-.19.02-.29-.2-.33-.4-.66-.6-1-.27-.43-.47-.9-.67-1.37-.06-.15-.14-.18-.3-.17-.59.06-1.19.09-1.78.14-.15.01-.21-.04-.25-.18-.22-.97-.45-1.94-.67-2.91-.03-.12,0-.18.12-.22.55-.19,1.1-.39,1.65-.58.17-.06.22-.13.21-.32-.05-.73-.05-1.45.03-2.18.01-.12,0-.24.03-.36.06-.36.02-.31-.25-.44-.5-.24-1.01-.48-1.51-.72-.12-.05-.17-.11-.13-.26.27-.91.54-1.83.8-2.74.08-.28.13-.31.43-.28.43.04.85.16,1.27.23.69.12.55.12.82-.41.35-.66.75-1.29,1.19-1.89.12-.16.1-.28,0-.44-.26-.41-.57-.78-.85-1.17-.27-.38-.27-.38.05-.72.62-.66,1.29-1.26,1.94-1.89.11-.1.18-.09.29,0,.45.36.9.72,1.34,1.09.19.16.34.18.56.04.48-.31.97-.62,1.49-.88.22-.11.45-.23.69-.29.13-.04.17-.1.15-.24-.07-.65-.12-1.31-.18-1.96-.01-.12.02-.18.15-.21.78-.19,1.57-.4,2.35-.58.18-.04.34-.16.54-.16.17,0,.26.05.31.21.2.59.43,1.16.64,1.75.05.14.12.2.27.19.46-.01.93,0,1.39,0,.55,0,1.1.05,1.64.14.17.03.27-.01.35-.17.3-.58.6-1.16.86-1.75.07-.15.14-.19.3-.13.85.28,1.7.56,2.55.84.39.13.43.11.68-.22.29-.38.62-.72.92-1.09,1.3-1.63,2.68-3.2,4.03-4.79.33-.39.65-.78.98-1.17.01,0,.03,0,.04,0Zm-12.74,10.8c-1.07,0-2.01.13-2.92.38-2.45.67-4.44,2.01-5.93,4.06-1.54,2.12-2.24,4.5-2.09,7.12.05.84.18,1.65.42,2.46.17.58.45,1.12.66,1.68.08.22.08.22.26.06.04-.04.08-.08.12-.12.31-.41.67-.78,1.01-1.16.32-.35.38-.68.22-1.11-.21-.59-.3-1.2-.33-1.82-.04-.91.06-1.8.3-2.68.5-1.84,1.47-3.4,2.93-4.63,1.98-1.65,4.3-2.15,6.8-1.98.21.01.34-.04.46-.2.36-.45.74-.89,1.11-1.33.14-.17.13-.22-.08-.3-.04-.02-.08-.03-.12-.04-.96-.23-1.94-.41-2.81-.39Zm-6.8,11.35c.01.2-.04.47.07.71.07.15.12.16.22.04.27-.32.53-.64.79-.95,1.35-1.63,2.71-3.25,4.07-4.88.58-.69,1.16-1.39,1.73-2.08.04-.04.11-.09.08-.15-.03-.06-.11-.04-.17-.04-.2,0-.4-.02-.6.01-1.43.23-2.71.82-3.77,1.78-1.62,1.46-2.43,3.32-2.42,5.57Zm-1.55,4.8s0,0,0,.01c-.36,0-.71,0-1.07,0-.14,0-.18.06-.11.19.09.16.17.32.27.47,1.28,1.92,3,3.31,5.11,4.24.59.26,1.2.44,1.83.54.1.02.21.05.27-.09.22-.46.43-.92.59-1.4.05-.15.03-.22-.14-.26-.46-.11-.91-.22-1.35-.4-1.57-.65-2.89-1.63-3.89-3.01-.15-.21-.34-.29-.57-.29-.31,0-.63,0-.94,0Zm4.52,0c-.09,0-.18,0-.26,0-.09,0-.17.02-.26.03-.09.01-.22-.03-.26.06-.03.09.09.15.15.21,1.04.94,2.25,1.55,3.64,1.77.13.02.19-.02.24-.14.22-.57.45-1.14.69-1.7.07-.16.03-.19-.13-.19-1.27-.01-2.54.04-3.81-.03Z"/>
      </g>
    </g>
  </g>
</svg>