<?xml version="1.0" encoding="UTF-8"?>
<svg id="Camada_2" data-name="Camada 2" xmlns="http://www.w3.org/2000/svg" viewBox="0 0 83.58 74.81">
  <defs>
    <style>
      .cls-1 {
        fill: #fff;
        stroke-width: 0px;
      }
    </style>
  </defs>
  <g id="Layer_1" data-name="Layer 1">
    <g>
      <path class="cls-1" d="m47.01,74.06c-5.17-3.98-9.91-8.41-13.91-13.59-4.19-5.43-7.32-11.36-8.53-18.2-.16-.91.15-1.2.92-1.45.78-.25,1.56-.49,2.34-.72-.09-1.38-.08-2.71.01-3.98-.93.27-1.85.54-2.77.83-.89.28-.96.25-.94-.72.08-3.6.81-7.07,2.19-10.39,3.27-7.85,9.05-13.47,16.12-17.89,5.35-3.34,11.15-5.66,17.2-7.39.3-.08.64-.1.96-.56-1.79.05-3.39.33-4.99.61-8.52,1.47-16.55,4.21-23.59,9.41-3.97,2.93-7.29,6.45-9.74,10.74-3.12,5.47-4.37,11.37-3.77,17.64.06.59-.11.85-.65,1.03-1.81.59-3.55,1.35-5.26,2.17-4.22,2.03-8.01,4.63-10.9,8.39-2.11,2.74-2.28,5.42-.5,7.87,1.17,1.61,2.83,2.63,4.59,3.42,6.02,2.7,12.41,3.21,18.9,3.04.1,0,.25,0,.25-.18-.11-.22-.33-.23-.53-.26-1.73-.28-3.44-.64-5.13-1.1-3.22-.88-6.38-1.92-9.04-4.04-1.69-1.35-2.84-3.04-2.7-5.34.16-2.64,1.66-4.55,3.61-6.09,2.28-1.79,4.99-2.83,7.63-4,.58-.25.65.13.76.52.56,2.04,1.29,4.01,2.2,5.92,2.76,5.72,6.65,10.56,11.32,14.85,4.18,3.84,8.8,7.03,13.7,9.86.27.16.54.45.94.31-.04-.1-.05-.17-.09-.21-.2-.17-.41-.34-.63-.5Z"/>
      <path class="cls-1" d="m83.58,37.86c.11,15.32-12.46,28-28.03,27.94-14.66-.06-27.71-11.89-27.72-27.99,0-7.67,2.83-14.3,8.29-19.72,5.42-5.38,12.04-8.05,19.62-8.05,7.62,0,14.25,2.74,19.68,8.14,5.09,5.07,8.27,12.21,8.15,19.68Zm-1.04.07c.17-14.54-11.85-26.79-26.66-26.89-14.32-.09-26.97,11.39-27.01,26.83-.02,7.44,2.69,13.87,7.99,19.13,5.23,5.19,11.6,7.8,18.92,7.79,7.4-.02,13.81-2.72,19.02-8.02,5.14-5.21,7.64-11.55,7.73-18.85Z"/>
      <path class="cls-1" d="m55.73,11.68c6.26.09,11.89,1.99,16.71,6.01,5.12,4.27,8.21,9.72,9.23,16.32.22,1.39.36,2.79.32,4.2-.19,5.97-2.01,11.36-5.73,16.06-3.16,3.99-7.16,6.82-11.98,8.46-2.15.73-4.37,1.21-6.66,1.31-.76.04-1.53.15-2.3.13-5.82-.2-11.12-1.92-15.74-5.53-4.53-3.54-7.54-8.11-9.14-13.63-.88-3.05-1.15-6.17-.88-9.31.44-5.26,2.29-10.01,5.61-14.15,3.84-4.79,8.79-7.85,14.76-9.23,1.9-.44,3.84-.69,5.8-.65Zm.02,1.04c-13.66-.17-25.18,11.12-25.24,25.05-.06,13.83,11.03,25.3,25.02,25.39,13.85.09,25.35-10.92,25.39-25.12.03-14.95-12.16-25.5-25.17-25.32Z"/>
      <g>
        <path class="cls-1" d="m47.08,22.51c.03.16-.05.28-.16.38-1.39,1.21-2.91,2.14-4.77,2.38-.79.1-1.6.05-2.4.02,0-.16.08-.18.14-.2,2.34-.84,4.3-2.28,6.17-3.86.06-.05.11-.09.16-.14.25-.23.4-.23.47.16.08.43.08.9.39,1.27,0,0,0,0,0,0Z"/>
        <path class="cls-1" d="m42.45,25.67c.9-.41,1.77-.79,2.59-1.27.66-.39,1.31-.79,1.86-1.33.18-.18.31-.18.44.04.16.25.39.42.65.55.16.08.22.2.05.33-1.62,1.23-3.39,2.02-5.49,1.79-.02,0-.04-.04-.11-.11Z"/>
        <g>
          <path class="cls-1" d="m47.08,22.51c-.12-.54-.31-1.06-.36-1.6-.01-.1.02-.22-.09-.28-.14-.07-.21.07-.28.14-.72.69-1.51,1.3-2.32,1.88-1.15.81-2.33,1.57-3.66,2.04-.78.28-1.57.51-2.41.34-.14-.03-.28-.07-.42-.11-.11-.04-.25-.07-.25-.2,0-.11.13-.14.22-.18.47-.25.95-.5,1.41-.76,2.26-1.27,4.32-2.84,6.47-4.28.91-.61,1.83-1.21,2.87-1.61.99-.38,2-.46,3-.05.78.32,1.39.85,1.61,1.7.23.88-.05,1.62-.73,2.22-.65.57-.51,1.58.27,1.98.41.21.86.24,1.31.23.16,0,.32,0,.48,0,.23.01.29.16.28.36-.01.22-.15.27-.33.24-.56-.09-1.06.12-1.53.36-.59.3-.65.78-.2,1.27.26.29.63.45.93.71-.93.44-2.51-.23-2.92-1.23-.17-.42-.25-.86-.22-1.31.02-.32-.08-.48-.43-.48-.29,0-.58-.05-.86-.07-.87-.07-1.4-.61-1.81-1.32h0Z"/>
          <path class="cls-1" d="m59.65,25.82c.21-.39.02-.65-.29-.83-.6-.34-1.24-.57-1.95-.4-.19.04-.38.11-.4-.2-.02-.25.06-.4.32-.4.35,0,.69,0,1.04-.02.9-.06,1.44-.71,1.37-1.61-.01-.15-.06-.28-.18-.37-.87-.68-1.28-1.52-.88-2.62.37-1.01,1.44-1.68,2.63-1.74,1.28-.07,2.36.47,3.41,1.1,1.69,1.01,3.23,2.24,4.86,3.34,1.32.89,2.66,1.74,4.07,2.48.11.06.28.08.27.24,0,.16-.18.17-.29.21-.56.2-1.14.17-1.71.04-1.64-.37-3.04-1.23-4.39-2.18-.86-.61-1.69-1.26-2.45-2-.21-.2-.36-.28-.38.12-.09.55-.14,1.12-.42,1.62-.5,1.01-1.35,1.34-2.42,1.32-.58-.01-.58.01-.59.62-.03,1.72-1.22,2.76-2.88,2.46.13-.12.24-.22.35-.32.33-.26.75-.42.93-.84Z"/>
          <path class="cls-1" d="m57.06,43.07q.62.7.03,1.43c-.44.55-.61,1.17-.46,1.87.11.52.26,1.02.53,1.46.63.99.62,2.05.37,3.14-.28,1.22-.76,2.36-1.25,3.51-.07.16-.11.33-.17.49h0c-.34.49-.54,1.05-.8,1.58-1.03,2.13-2.15,4.22-2.97,6.45-.02.04-.03.08-.07.1-.13-.42-.01-.79.06-1.16.35-1.75.99-3.41,1.55-5.1.66-2.02,1.32-4.04,1.57-6.16.15-1.28.15-2.56-.14-3.83-.03-.14-.1-.27-.15-.4-.19-.86-.58-1.64-1.02-2.4-.38-.89-1.01-1.61-1.62-2.34-.95-1.15-2.06-2.14-3.1-3.2-.73-.74-1.47-1.48-1.93-2.43-.11-.22-.2-.44-.14-.72.32.38.63.77.95,1.15,1.81,2.1,3.96,3.78,6.32,5.21.8.49,1.61.96,2.46,1.36h0Z"/>
          <path class="cls-1" d="m54.12,44.04c.44.76.83,1.53,1.02,2.4.17,1.04.33,2.08.29,3.14-.05,1.27-.49,3.69-.86,4.48-.03,0-.07,0-.08-.02-.67-1.37-1.23-2.77-1.27-4.32-.01-.49.13-.94.37-1.36.31-.54.59-1.09.73-1.7.17-.74.03-1.4-.47-1.98-.11-.13-.23-.26-.34-.39-.18-.21-.26-.45-.02-.65.31-.25.32.14.46.25.06.04.1.1.15.15Z"/>
          <path class="cls-1" d="m55.94,34.85c-.17-.29-.45-.44-.71-.62-.3-.2-.58-.43-.83-.69-.53-.56-.54-1.16-.02-1.73.36-.39.79-.67,1.25-.92.55-.31,1.12-.6,1.56-1.08.51-.56.5-1-.08-1.47-.49-.4-1.08-.61-1.68-.78-.93-.25-1.82-.57-2.6-1.15-.3-.22-.66-.46-.6-.88.06-.42.47-.55.82-.69.38-.15.78-.23,1.19-.15.1.02.21.04.24.16.03.13-.08.18-.17.22-.33.16-.66.31-1.04.15-.37-.16-.44.07-.44.35,0,.35.21.55.49.71.5.27,1.05.41,1.59.55.81.21,1.63.41,2.38.79,1.45.72,1.55,1.69.29,2.72-.55.45-1.15.82-1.76,1.18-.34.21-.71.4-.85.82-.15.37-.05.69.17,1.01.18.26.48.35.71.54.14.11.28.22.42.33.18.21.37.41.52.63.33.48.28.96-.11,1.38-.29.31-.65.51-1.04.7-.49.24-1,.47-1.19,1.09-.09-.33-.06-.47.19-.73.29-.29.64-.48.99-.7.23-.14.49-.26.58-.55.24-.46.05-.83-.26-1.18Z"/>
          <path class="cls-1" d="m55.65,22.96c-1.05,0-1.88-.84-1.88-1.88,0-.99.9-1.88,1.91-1.88,1.01,0,1.9.88,1.9,1.88,0,1.05-.86,1.88-1.93,1.87Z"/>
          <path class="cls-1" d="m64.26,22.59c.28-.5.33-1.07.42-1.62.21-.12.32.06.45.16,1.31,1.09,2.63,2.17,4.12,3.02.73.41,1.5.74,2.36,1.08-.31.13-.55.14-.78.15-2.22.12-4.15-.59-5.84-2.01-.27-.23-.63-.38-.72-.77Z"/>
          <path class="cls-1" d="m57.06,43.07c-.23-.26-.54-.38-.83-.54-.35-.2-.36-.28-.02-.48,1.53-.88,3-1.84,4.37-2.95,1.18-.96,2.27-2.01,3.24-3.18.11-.14.19-.32.48-.41-.17.7-.52,1.22-.92,1.7-.81.98-1.78,1.81-2.71,2.68-1.01.94-1.98,1.9-2.81,3-.26.34-.47.47-.82.19,0,0,0,0,0,0Z"/>
          <path class="cls-1" d="m56.1,54.96c.08-.12.17-.23.34-.47.87,3.01,2.26,5.74,2.66,8.79-.04.02-.09.03-.13.05-.2-.46-.39-.92-.59-1.37-.76-1.74-1.68-3.39-2.55-5.07-.22-.43-.28-.79-.01-1.21.14-.22.26-.45.29-.72,0,0,0,0,0,0Z"/>
          <path class="cls-1" d="m56.89,39.86c-.02.47-.12.92-.37,1.32-.43.67-1.16.69-1.63.05-.52-.71-.55-1.98-.06-2.71.47-.69,1.25-.69,1.69.02.25.4.35.85.37,1.32Z"/>
          <path class="cls-1" d="m54.78,25.04c0-.39,0-.78,0-1.17,0-.26.08-.41.37-.41.38,0,.75,0,1.13,0,.26,0,.36.14.35.38-.03.88-.04,1.76-.08,2.64-.02.46-.44.38-.73.44-.12.03-.25-.05-.38-.07-.49-.06-.7-.31-.65-.81.04-.33,0-.66,0-1,0,0-.01,0-.02,0Z"/>
          <path class="cls-1" d="m68.93,25.78c-1.6.18-2.98-.07-4.25-.85-.42-.26-.82-.54-1.23-.81-.21-.14-.3-.28-.01-.44.25-.14.48-.32.64-.57.09-.14.2-.16.32-.05,1.25,1.18,2.78,1.9,4.32,2.59.04.02.07.04.21.13Z"/>
          <path class="cls-1" d="m45.37,25.84c.52-.28,1.03-.56,1.56-.82.47-.24.9-.53,1.26-.9.17-.17.34-.24.58-.17.29.09.59.11.9.11.11,0,.25-.04.3.11.03.11-.07.18-.14.25-.79.88-1.81,1.3-2.95,1.48-.49.08-.99.12-1.48.06,0-.04-.01-.08-.02-.12Z"/>
          <path class="cls-1" d="m66.01,25.98c-1.7.1-3.17-.26-4.37-1.46-.09-.09-.22-.19-.18-.33.06-.17.25-.09.38-.12.77-.19,1.39.03,1.97.58.49.46,1.17.68,1.77.99.14.07.3.1.43.34Z"/>
          <path class="cls-1" d="m54.87,29.12c0-.1,0-.2,0-.3,0-.64.28-.93.92-.98.45-.03.75.24.74.68,0,.49-.03.98-.06,1.47-.03.43-.47.67-.88.52-.68-.25-.81-.75-.72-1.38Z"/>
          <path class="cls-1" d="m55.48,27.77c-.27.15-.52.27-.74.41-.86.53-.91,1.12-.15,1.79.21.18.45.31.67.48.12.09.42.11.28.33-.11.18-.36.31-.61.17-.41-.24-.8-.51-1.16-.83-.23-.22-.46-.44-.57-.75-.05-.13-.11-.28-.11-.42.04-.66.53-.95,1.02-1.24.45-.27.89-.28,1.37.06Z"/>
          <path class="cls-1" d="m59.65,25.82c-.19.42-.6.59-.93.84-.4.17-.8.32-1.19.51-.44.21-.83.13-1.24-.11.09-.2.29-.18.44-.22.51-.14,1.04-.24,1.53-.47.21-.1.42-.19.54-.41.09-.13.17-.26.15-.43-.03-.21-.11-.41-.35-.29-.44.23-.8.01-1.18-.13-.27-.28-.17-.42.18-.45.62-.06,1.19.12,1.72.42.27.16.38.41.33.73Z"/>
          <path class="cls-1" d="m56.26,34.21c-.14-.11-.28-.22-.42-.33.16-.05.29-.14.42-.25.83-.46.87-1.1.15-1.76-.12-.11-.47-.16-.24-.43.17-.2.42-.29.69-.08.23.18.45.36.64.58.38.47.39,1.01-.02,1.46-.33.37-.66.77-1.22.82Z"/>
          <path class="cls-1" d="m56.26,33.63c-.12.11-.26.21-.42.25-.23-.19-.53-.28-.71-.54-.22-.32-.32-.64-.17-1.01.18-.16.35-.34.54-.48.38-.28.89-.07.92.4.03.47.04.94-.16,1.39Z"/>
          <path class="cls-1" d="m57.42,25.12c.38.14.74.36,1.18.13.23-.12.32.08.35.29.02.17-.06.3-.15.43-.46.26-.94.48-1.46.61-.27.07-.38-.02-.37-.29,0-.29.02-.57,0-.86-.02-.38.09-.51.45-.31Z"/>
          <path class="cls-1" d="m54.53,25.91c0,.69-.06.74-.71.48-.29-.12-.59-.23-.79-.5-.11-.15-.17-.31-.07-.48.1-.17.25-.08.39-.06.22.03.43.02.64-.04.47-.13.51-.1.54.39,0,.07,0,.14,0,.22Z"/>
          <path class="cls-1" d="m55.63,63.09c-.05-2.12-.11-4.24-.16-6.48.28.24.38.44.38.65-.03,1.94-.07,3.88-.1,5.82-.04,0-.08,0-.11,0Z"/>
          <path class="cls-1" d="m55.29,34.46c.25,0,.42.27.27.45-.36.45-.41.87,0,1.31.06.07.1.15.02.23-.06.07-.15.08-.24.05-.31-.08-.69-.58-.72-.96-.03-.35.28-.94.57-1.06.04-.02.08-.02.1-.03Z"/>
          <path class="cls-1" d="m56.3,37.6c.03.27-.03.49-.42.33-.12-.05-.25-.03-.38,0-.38.07-.53-.08-.41-.44.1-.31.73-.56,1.02-.41.21.11.2.3.2.53Z"/>
          <path class="cls-1" d="m55.94,34.85c.31.34.5.71.26,1.18-.16.1-.31.3-.53.12-.21-.17-.36-.39-.29-.67.08-.29.2-.57.56-.64Z"/>
        </g>
      </g>
    </g>
  </g>
</svg>