<?xml version="1.0" encoding="UTF-8"?>
<svg id="Camada_2" data-name="Camada 2" xmlns="http://www.w3.org/2000/svg" viewBox="0 0 83.43 74.81">
  <defs>
    <style>
      .cls-1 {
        fill: #fff;
        stroke-width: 0px;
      }
    </style>
  </defs>
  <g id="Layer_1" data-name="Layer 1">
    <g>
      <path class="cls-1" d="m83.42,37.28c.06,15.48-12.64,28-28.07,27.9-14.95-.09-27.73-12.24-27.69-28.02.02-7.65,2.83-14.23,8.25-19.64,5.43-5.43,12.08-8.1,19.7-8.1,7.63,0,14.26,2.75,19.68,8.16,5.15,5.15,8.23,12.25,8.14,19.69Zm-1.04.02c.11-14.59-11.87-26.77-26.69-26.86-14.41-.09-26.97,11.5-26.99,26.85,0,7.42,2.67,13.83,7.93,19.07,5.2,5.18,11.57,7.83,18.91,7.83,7.41,0,13.82-2.68,19.04-7.96,5.17-5.22,7.71-11.58,7.79-18.93Z"/>
      <path class="cls-1" d="m29.34,37.26c-.14-14.16,11.46-26.25,26.38-26.18,14.11.07,25.89,11.31,26.11,26.15-.21,14.6-11.36,26.18-26.32,26.35-15.58-.2-26.36-12.75-26.17-26.32Zm1.03-.01c-.15,13.72,10.96,25.2,24.98,25.3,13.74.1,25.13-10.76,25.44-25.02-.14-6.95-2.41-13.04-7.37-17.99-4.91-4.91-10.86-7.36-17.83-7.44-13.6-.15-25.35,11.13-25.22,25.15Z"/>
      <path class="cls-1" d="m47.01,74.06c-5.17-3.98-9.91-8.41-13.91-13.59-4.19-5.43-7.32-11.36-8.53-18.2-.16-.91.15-1.2.92-1.45.78-.25,1.56-.49,2.34-.72-.09-1.38-.08-2.71.01-3.98-.93.27-1.85.54-2.77.83-.89.28-.96.25-.94-.72.08-3.6.81-7.07,2.19-10.39,3.27-7.85,9.05-13.47,16.12-17.89,5.35-3.34,11.15-5.66,17.2-7.39.3-.08.64-.1.96-.56-1.79.05-3.39.33-4.99.61-8.52,1.47-16.55,4.21-23.59,9.41-3.97,2.93-7.29,6.45-9.74,10.74-3.12,5.47-4.37,11.37-3.77,17.64.06.59-.11.85-.65,1.03-1.81.59-3.55,1.35-5.26,2.17-4.22,2.03-8.01,4.63-10.9,8.39-2.11,2.74-2.28,5.42-.5,7.87,1.17,1.61,2.83,2.63,4.59,3.42,6.02,2.7,12.41,3.21,18.9,3.04.1,0,.25,0,.25-.18-.11-.22-.33-.23-.53-.26-1.73-.28-3.44-.64-5.13-1.1-3.22-.88-6.38-1.92-9.04-4.04-1.69-1.35-2.84-3.04-2.7-5.34.16-2.64,1.66-4.55,3.61-6.09,2.28-1.79,4.99-2.83,7.63-4,.58-.25.65.13.76.52.56,2.04,1.29,4.01,2.2,5.92,2.76,5.72,6.65,10.56,11.32,14.85,4.18,3.84,8.8,7.03,13.7,9.86.27.16.54.45.94.31-.04-.1-.05-.17-.09-.21-.2-.17-.41-.34-.63-.5Z"/>
      <path class="cls-1" d="m57.55,16.56c.27.09.54.19.81.26,2.47.61,2.76.9,2.61,3.41-.09,1.49.35,2.4,1.79,3.01,1.63.68,3.13,1.66,4.6,2.65,2.85,1.91,3.92,4.45,3.07,7.81-.16.62-.63,1.45-.11,1.89.52.44,1.25-.18,1.87-.4,1.03-.36,2.03-.8,3.1-1.09-1.33,1.05-2.85,1.76-4.41,2.38-.71.28-1.25.66-1.47,1.44-1.18,4.16-2.66,8.21-4.24,12.23-.08.21-.09.45-.16.83,3.64-.56,6.95-1.76,10.3-3.22-.63.78-.86.97-2.15,1.57-2,.94-4.03,1.82-6.2,2.27-1.72.35-3.28.79-3.54,3.02-.2-.27-.29-.35-.28-.4.39-1.78.38-1.84-1.38-1.58-2.63.38-5.26.26-7.9.26-1.88,0-1.88-.02-1.78,1.8.01.18-.03.37-.05.57-.14-.04-.29-.06-.29-.08-.09-2.77-2.28-3.03-4.1-2.88-1.93.16-3.12-1.16-4.74-1.52-1.22-.27-2.23-1.09-3.21-1.87-1.31-1.05-1.97-2.26-2.13-4.09,1.39,2.93,3.62,4.38,6.26,5.3.39.13.85.51,1.21.2.39-.34,0-.81-.14-1.19-1.53-4.19-3.14-8.35-4.19-12.7-.16-.66-.64-1.03-1.11-1.45-1.09-.96-1.88-2.11-1.97-3.64.58.81,1.08,1.66,1.8,2.36,1.06,1.02,1.15,1,1.65-.34.76-2.07,1.56-4.13,2.35-6.19.87-2.26,2.55-3.52,4.89-4,.52-.1,1.02-.29,1.54-.36,1.46-.2,2.12-1.02,2.33-2.47.28-1.88.46-1.94,2.36-1.66,1.38.21,2.77.2,4.16.15.39-.01.99.15,1.06-.44.05-.45-.49-.55-.84-.63-2.11-.47-4.23-.98-6.31.21q.28-.83,1.79-1.42c1.06,0,2.11,0,3.17,0Zm-2.75,7.38c-.67,1.68-1.36,3.34-2.01,5.03-.91,2.37-1.91,4.72-2.58,7.18-.23.87-.26,1.57,1,1.7,4.23.42,8.44.28,12.61-.48,4.96-.9,3.93-.02,5-5.02.43-1.99-.22-3.46-1.58-4.79-1.3-1.27-2.93-1.97-4.53-2.76-2.09-1.03-3.16-1.45-2.44-4.26.14-.56.02-.97-.71-.86-1.85.27-3.64-.16-5.41-.54-1.05-.23-1.49-.19-1.32,1.11.27,2.02-.38,2.91-2.29,3.6-.9.32-1.82.62-2.75.85-1.3.33-2.21,1.07-2.78,2.28-1.13,2.4-1.93,4.91-2.58,7.47-.24.95.13,1.43,1.01,1.72,1.37.46,2.74.86,4.15,1.16.85.18,1.18-.01,1.39-.88,1.08-4.53,3.47-8.49,5.81-12.51Zm2.09,27.98c1.19-.11,3.52-.36,5.86-.52.92-.06,1.37-.46,1.59-1.32.97-3.66,1.99-7.31,2.95-10.96.38-1.42.29-1.5-1.19-1.13-4.85,1.22-9.77,1.32-14.71.9-1.12-.1-1.35.26-1.2,1.26.37,2.61.7,5.22,1.03,7.83q.49,3.93,5.66,3.94Zm-7.36-.49c1.47.29,1.3-.4,1.19-1.13-.54-3.55-1.08-7.11-1.56-10.67-.1-.76-.44-1.05-1.15-1.2-1.36-.29-2.69-.68-4.04-1.03-.36-.09-.74-.44-1.08-.15-.41.35-.09.82.01,1.21.77,3.07,1.52,6.14,2.37,9.19.96,3.44.17,3.24,4.29,3.78.09.01.19.03-.04,0Z"/>
    </g>
  </g>
</svg>