<?xml version="1.0" encoding="UTF-8"?>
<svg id="Camada_2" data-name="Camada 2" xmlns="http://www.w3.org/2000/svg" viewBox="0 0 79.34 74.81">
  <defs>
    <style>
      .cls-1 {
        fill: #fff;
        stroke-width: 0px;
      }
    </style>
  </defs>
  <g id="Layer_1" data-name="Layer 1">
    <g>
      <path class="cls-1" d="m51.21,61.7c-.41-.19-.86-.25-1.3-.3-3.38-.44-6.53-1.54-9.46-3.26-4.94-2.9-8.52-7-10.78-12.25-1.13-2.63-1.75-5.4-1.97-8.26-.36-4.85.61-9.42,2.83-13.72,2.18-4.22,5.31-7.57,9.34-10.08,3.03-1.89,6.33-3.04,9.84-3.59,1.9-.3,3.83-.36,5.74-.2,6.25.54,11.66,2.94,16.15,7.37,3.7,3.65,6.09,8.03,7.18,13.1.68,3.16.71,6.34.18,9.53-.7,4.25-2.36,8.09-4.98,11.5-3.75,4.87-8.64,8-14.61,9.44-.78.19-1.56.35-2.36.42-.41.04-.83.1-1.2.3h-4.61Zm27.08-25.9c.27-12.91-10.4-24.81-24.71-24.88-13.6-.07-24.9,10.84-24.96,24.77-.06,14.06,11.41,25,24.81,25.02,13.8.02,25.07-11.38,24.86-24.91Z"/>
      <path class="cls-1" d="m77.8,35.85c-.08,6.71-2.44,12.51-7.17,17.26-4.73,4.74-10.57,7.04-17.22,7.03-6.65-.02-12.45-2.38-17.17-7.13-4.74-4.78-7.13-10.6-7.09-17.3.1-14.02,11.5-24.38,24.68-24.2,13.41.18,24.11,11.27,23.96,24.34Zm-24.38,23.32c12.26.17,23.16-9.59,23.45-23.22-.15-6.45-2.29-12.07-6.9-16.67-4.53-4.51-10.03-6.82-16.38-6.84-13.07-.04-23.43,10.48-23.45,23.3-.02,13.27,10.77,23.55,23.29,23.43Z"/>
      <path class="cls-1" d="m47.01,74.06c-5.17-3.98-9.91-8.41-13.91-13.59-4.19-5.43-7.32-11.36-8.53-18.2-.16-.91.15-1.2.92-1.45.78-.25,1.56-.49,2.34-.72-.09-1.38-.08-2.71.01-3.98-.93.27-1.85.54-2.77.83-.89.28-.96.25-.94-.72.08-3.6.81-7.07,2.19-10.39,3.27-7.85,9.05-13.47,16.12-17.89,5.35-3.34,11.15-5.66,17.2-7.39.3-.08.64-.1.96-.56-1.79.05-3.39.33-4.99.61-8.52,1.47-16.55,4.21-23.59,9.41-3.97,2.93-7.29,6.45-9.74,10.74-3.12,5.47-4.37,11.37-3.77,17.64.06.59-.11.85-.65,1.03-1.81.59-3.55,1.35-5.26,2.17-4.22,2.03-8.01,4.63-10.9,8.39-2.11,2.74-2.28,5.42-.5,7.87,1.17,1.61,2.83,2.63,4.59,3.42,6.02,2.7,12.41,3.21,18.9,3.04.1,0,.25,0,.25-.18-.11-.22-.33-.23-.53-.26-1.73-.28-3.44-.64-5.13-1.1-3.22-.88-6.38-1.92-9.04-4.04-1.69-1.35-2.84-3.04-2.7-5.34.16-2.64,1.66-4.55,3.61-6.09,2.28-1.79,4.99-2.83,7.63-4,.58-.25.65.13.76.52.56,2.04,1.29,4.01,2.2,5.92,2.76,5.72,6.65,10.56,11.32,14.85,4.18,3.84,8.8,7.03,13.7,9.86.27.16.54.45.94.31-.04-.1-.05-.17-.09-.21-.2-.17-.41-.34-.63-.5Z"/>
      <path class="cls-1" d="m56.47,36.84c.51.45.96.81,1.36,1.21,1.45,1.47,1.52,3.27.21,4.87-.45.55-1.01.98-1.6,1.36-.78.51-1,1.92-.43,2.65.61.78,1.12,1.6,1.39,2.56.09.31.15.6-.16.81-.3.19-.52-.03-.75-.17-.27-.17-.52-.53-.85-.35-.33.17-.19.59-.22.9-.05.8-.09,1.6-.15,2.41-.12,1.4-1.13,2.31-2.51,2.28-1.62-.04-2.62-.89-2.71-2.34-.06-.98-.13-1.96-.14-2.93,0-.49-.18-.76-.61-1-1.68-.95-2.45-2.63-1.97-4.22.23-.77.67-1.4,1.34-1.85.38-.26.36-.41-.02-.69-2.45-1.75-2.81-4.24-1-6.67.23-.31.44-.47-.06-.77-2.37-1.42-3.14-3.83-2.12-6.43.55-1.39,1.44-2.53,2.64-3.41.46-.34.62-.72.58-1.27-.08-1.35-.15-2.71-.16-4.06-.02-1.97,1.35-3.47,3.3-3.61.77-.06,1.56-.05,2.34,0,1.85.12,3.24,1.59,3.2,3.44-.03,1.53-.18,3.06-.26,4.58-.02.31-.19.71.14.91.29.18.63-.04.92-.18.47-.23.95-.74,1.37.08.02.03.19.01.27-.02.28-.11.5-.08.63.21.12.28-.06.48-.25.65-.72.64-1.55,1.03-2.53.97-.51-.03-.68.15-.73.67-.1.95.15,1.6.92,2.26,2.67,2.3,2.36,4.99-.68,6.77-.21.13-.43.24-.68.39Zm2.53-10.95c-.6.21-1.02-.34-1.65-.28-1.52.14-3.05.21-4.55.51-.21.04-.49.09-.61-.16-.13-.29.13-.45.3-.63.6-.61,1.38-.51,2.13-.51.42,0,.88.07,1.13-.4.11-.22.25-.55-.17-.55-1.46,0-3-.34-4.35.1-2.69.88-4.76,2.6-5.51,5.5-.54,2.1.37,4.11,2.21,5.04q.99.5.28,1.31c-1.74,1.99-1.43,4.68.7,6.08.16.11.33.3.53.2.23-.12.1-.35.09-.54-.03-.65-.04-1.31-.09-1.96-.05-.59.22-.91.74-1.16,1.44-.69,2.95-1.14,4.48-1.53,1.41-.36,2.69-.98,3.69-2.08.61-.67.93-1.46.71-2.36-.3-1.25-1.12-2.15-2.2-2.94-.08.3-.19.51-.19.72-.04,1.38-.83,2.1-2.07,2.54-1.58.56-3.21,1.01-4.72,1.78-.53.27-.71.16-.73-.42-.04-1.25-.11-2.51-.15-3.76-.04-1.48.39-1.98,1.85-2.2.27-.04.55-.02.83-.04,1.07-.09,2.17-.08,3.14-.65.15-.09.33-.17.3-.39-.03-.24-.25-.21-.42-.22-.25,0-.5.01-.75,0-.48-.03-.99.13-1.51-.31,1.31-.52,2.52-.89,3.87-.51.9.26,1.81.29,2.68-.19Zm-11.28,19.85c.02,1.28.68,2.17,1.7,2.85.37.25.49.08.47-.3-.04-.99.5-1.65,1.26-2.18.92-.64,1.95-1.02,3.01-1.35,1.09-.34,2.09-.85,2.95-1.62,1.8-1.63,1.82-3.39.04-5.03-.21-.2-.43-.57-.72-.45-.28.11-.21.54-.22.82-.05,1.67-.98,2.68-2.43,3.31-.58.25-1.19.4-1.81.5-.87.14-1.73.37-2.49.83-.99.6-1.73,1.38-1.77,2.63Z"/>
    </g>
  </g>
</svg>