<?xml version="1.0" encoding="UTF-8"?>
<svg id="Camada_2" data-name="Camada 2" xmlns="http://www.w3.org/2000/svg" viewBox="0 0 83.04 74.81">
  <defs>
    <style>
      .cls-1 {
        fill: #fff;
        stroke-width: 0px;
      }
    </style>
  </defs>
  <g id="Layer_1" data-name="Layer 1">
    <g>
      <path class="cls-1" d="m83.04,40.03c-.03.09-.08.18-.09.27-.56,4.66-2.35,8.82-5.13,12.56-4.32,5.79-10.07,9.35-17.14,10.78-2.46.5-4.96.62-7.45.4-6.04-.51-11.41-2.72-16.01-6.71-4.31-3.73-7.19-8.36-8.7-13.85-.44-1.61-.72-3.24-.86-4.91-.08-.99-.16-1.98-.13-2.97.12-3.49.8-6.85,2.15-10.08,1.59-3.81,3.92-7.11,6.96-9.89,3.9-3.56,8.46-5.81,13.65-6.8,1.51-.29,3.05-.35,4.57-.5.6-.06,1.21-.04,1.82.06.22.04.44.06.67.06,2.45.07,4.82.6,7.13,1.38,4.13,1.4,7.75,3.66,10.8,6.78,3.9,3.99,6.43,8.73,7.55,14.21.1.5.01,1.03.22,1.51v7.68Zm-.78-3.8c.15-14.53-11.86-26.78-26.69-26.86-14.33-.08-26.95,11.42-26.99,26.86-.02,7.38,2.66,13.77,7.87,19,5.21,5.23,11.61,7.9,18.98,7.9,7.22,0,13.52-2.57,18.7-7.63,5.39-5.27,8.03-11.74,8.12-19.26Z"/>
      <path class="cls-1" d="m29.22,36.21c-.11-14.17,11.47-26.26,26.39-26.18,14.35.07,26.11,11.59,26.07,26.23-.04,14.38-11.23,26.14-26.37,26.26-15.68-.26-26.26-12.92-26.09-26.32Zm26.23-25.15c-13.67-.16-25.17,11.18-25.22,25.08-.04,13.78,11.02,25.33,25.14,25.37,13.78.03,25.29-10.98,25.27-25.24-.03-14.86-12.17-25.39-25.19-25.2Z"/>
      <path class="cls-1" d="m52.83,34.53c0-2.4,0-4.8,0-7.2,0-.48-.06-.95-.15-1.43-.13-.69-.54-1.14-1.17-1.41-.54-.22-1.09-.35-1.68-.36-.35-.01-.71-.03-1.05-.09-.42-.08-.56-.34-.52-.88.03-.39.19-.57.6-.61.25-.03.51-.03.77-.03,3.9,0,7.81-.02,11.71-.02.16,0,.32,0,.48,0,.25.02.54-.03.67.26.12.3.14.62.01.93-.05.12-.17.2-.3.21-.25.03-.51.05-.76.05-.58.02-1.14.15-1.69.34-1.09.37-1.55.99-1.61,2.13-.01.29,0,.58,0,.86,0,2.78-.04,5.57.04,8.35.06,2.18.09,4.35.11,6.52,0,.16.01.32.04.48.04.24.22.4.48.37.38-.03.76-.1,1.14-.16.92-.15,1.82-.39,2.66-.79,1.41-.66,2.36-1.73,2.77-3.25.19-.68.29-1.37.37-2.07.27-2.39.12-4.8.16-7.19.02-1.16.2-2.29.59-3.39.16-.45.35-.89.59-1.31.86-1.55,2.19-2.38,3.95-2.5.86-.06,1.73-.04,2.59-.02.7.01.91.29.81.97-.03.25-.16.41-.42.45-.28.04-.57.09-.86.12-.19.02-.38.01-.58.02-.84.06-1.22.36-1.36,1.2-.08.47-.08.96-.08,1.43,0,1.95.04,3.9,0,5.86-.03,1.89-.26,3.77-.91,5.56-.45,1.25-1.06,2.39-2.06,3.31-.64.59-1.36,1.06-2.15,1.42-1.75.81-3.6,1.33-5.5,1.63-.54.09-1.08.14-1.61.22-.41.06-.54.2-.58.63-.02.16-.02.32-.01.48,0,1.41.02,2.82.01,4.22,0,.58.08,1.15.29,1.69.37.97,1.01,1.61,2.1,1.71.51.05,1.01.15,1.53.09.38-.04.57.13.62.45.06.44-.1.72-.49.79-.25.04-.51.05-.76.05-4,.02-8,.03-12,.04-.16,0-.32,0-.48-.01-.47-.04-.68-.32-.6-.78.04-.24.18-.42.44-.44.45-.03.9-.02,1.34-.05,1.28-.08,2.29-.9,2.52-2.11.1-.53.17-1.08.19-1.62.03-.73.03-1.47-.05-2.21-.04-.38-.03-.77-.05-1.15,0-.32,0-.64-.02-.96-.03-.52-.16-.66-.68-.77-.22-.05-.44-.05-.67-.08-2.07-.27-4.1-.67-6.02-1.52-.79-.35-1.57-.71-2.24-1.28-1.02-.87-1.78-1.92-2.26-3.17-.61-1.59-.94-3.24-1.06-4.95-.17-2.37-.09-4.73-.14-7.1-.01-.48,0-.96-.19-1.42-.24-.59-.61-.96-1.29-.93-.45.02-.9,0-1.34-.02-.24,0-.44-.11-.52-.35-.1-.31-.14-.63.1-.91.06-.07.16-.12.24-.13.19-.03.38-.04.57-.04.86,0,1.73.01,2.59,0,1.47-.04,2.57.66,3.45,1.76.8,1,1.16,2.2,1.43,3.42.18.82.24,1.65.22,2.48-.05,1.95.12,3.9.18,5.85.03.9.2,1.78.44,2.65.44,1.57,1.39,2.71,2.9,3.37,1.07.46,2.2.67,3.34.83.16.02.32.01.48,0,.26-.03.4-.16.43-.43.03-.35.03-.7.03-1.05,0-2.34,0-4.67,0-7.01h-.05Z"/>
      <path class="cls-1" d="m47.01,74.06c-5.17-3.98-9.91-8.41-13.91-13.59-4.19-5.43-7.32-11.36-8.53-18.2-.16-.91.15-1.2.92-1.45.78-.25,1.56-.49,2.34-.72-.09-1.38-.08-2.71.01-3.98-.93.27-1.85.54-2.77.83-.89.28-.96.25-.94-.72.08-3.6.81-7.07,2.19-10.39,3.27-7.85,9.05-13.47,16.12-17.89,5.35-3.34,11.15-5.66,17.2-7.39.3-.08.64-.1.96-.56-1.79.05-3.39.33-4.99.61-8.52,1.47-16.55,4.21-23.59,9.41-3.97,2.93-7.29,6.45-9.74,10.74-3.12,5.47-4.37,11.37-3.77,17.64.06.59-.11.85-.65,1.03-1.81.59-3.55,1.35-5.26,2.17-4.22,2.03-8.01,4.63-10.9,8.39-2.11,2.74-2.28,5.42-.5,7.87,1.17,1.61,2.83,2.63,4.59,3.42,6.02,2.7,12.41,3.21,18.9,3.04.1,0,.25,0,.25-.18-.11-.22-.33-.23-.53-.26-1.73-.28-3.44-.64-5.13-1.1-3.22-.88-6.38-1.92-9.04-4.04-1.69-1.35-2.84-3.04-2.7-5.34.16-2.64,1.66-4.55,3.61-6.09,2.28-1.79,4.99-2.83,7.63-4,.58-.25.65.13.76.52.56,2.04,1.29,4.01,2.2,5.92,2.76,5.72,6.65,10.56,11.32,14.85,4.18,3.84,8.8,7.03,13.7,9.86.27.16.54.45.94.31-.04-.1-.05-.17-.09-.21-.2-.17-.41-.34-.63-.5Z"/>
    </g>
  </g>
</svg>