<?xml version="1.0" encoding="UTF-8"?>
<svg id="Camada_2" data-name="Camada 2" xmlns="http://www.w3.org/2000/svg" viewBox="0 0 82.99 74.81">
  <defs>
    <style>
      .cls-1 {
        fill: #fff;
        stroke-width: 0px;
      }
    </style>
  </defs>
  <g id="Layer_1" data-name="Layer 1">
    <g>
      <path class="cls-1" d="m82.99,41.2c-.04.12-.09.24-.11.37-.45,3.92-1.86,7.5-3.98,10.79-4.13,6.4-9.93,10.47-17.34,12.23-2.7.64-5.44.84-8.19.63-6.22-.49-11.72-2.76-16.41-6.9-4.32-3.81-7.18-8.53-8.62-14.11-.37-1.46-.63-2.93-.74-4.44-.06-.86-.16-1.72-.14-2.58.13-6.42,2.11-12.19,6.14-17.2,4.16-5.18,9.52-8.46,16.01-9.87,1.18-.26,2.38-.45,3.6-.48.64-.02,1.27-.14,1.91-.14,6.97.07,13.19,2.2,18.49,6.81,4.8,4.17,7.82,9.4,9.14,15.61.11.53.02,1.09.24,1.61v7.68Zm-27.71,23.03c14.6.24,26.82-11.88,26.94-26.65.12-14.77-12-26.97-26.69-27.06-14.06-.09-26.92,11.15-26.99,26.75-.07,15.74,12.94,27.14,26.74,26.96Z"/>
      <path class="cls-1" d="m29.15,37.32c-.07-14.3,11.7-26.28,26.52-26.14,14.07.14,25.86,11.42,25.99,26.23-.19,7.25-2.66,13.56-7.86,18.7-5.12,5.07-11.38,7.54-18.52,7.52-7.19-.02-13.46-2.57-18.54-7.72-5.06-5.14-7.55-11.38-7.6-18.59Zm26.33-25.12c-1.7-.02-3.39.11-5.05.45-4.62.95-8.67,3.02-12.15,6.2-2.64,2.41-4.63,5.28-6.06,8.55-1.08,2.48-1.76,5.08-1.95,7.78-.16,2.23-.09,4.47.31,6.69.92,5.09,3.19,9.49,6.77,13.2,2.45,2.54,5.35,4.45,8.63,5.77,2.54,1.02,5.19,1.59,7.92,1.77,1.88.13,3.76-.02,5.63-.33,4.91-.8,9.18-2.9,12.85-6.23,2.64-2.4,4.65-5.26,6.09-8.52,1.45-3.27,2.11-6.7,2.14-10.25.01-1.63-.19-3.25-.52-4.85-1.18-5.83-4.07-10.67-8.63-14.46-4.62-3.84-9.96-5.78-15.99-5.77Z"/>
      <path class="cls-1" d="m47.01,74.06c-5.17-3.98-9.91-8.41-13.91-13.59-4.19-5.43-7.32-11.36-8.53-18.2-.16-.91.15-1.2.92-1.45.78-.25,1.56-.49,2.34-.72-.09-1.38-.08-2.71.01-3.98-.93.27-1.85.54-2.77.83-.89.28-.96.25-.94-.72.08-3.6.81-7.07,2.19-10.39,3.27-7.85,9.05-13.47,16.12-17.89,5.35-3.34,11.15-5.66,17.2-7.39.3-.08.64-.1.96-.56-1.79.05-3.39.33-4.99.61-8.52,1.47-16.55,4.21-23.59,9.41-3.97,2.93-7.29,6.45-9.74,10.74-3.12,5.47-4.37,11.37-3.77,17.64.06.59-.11.85-.65,1.03-1.81.59-3.55,1.35-5.26,2.17-4.22,2.03-8.01,4.63-10.9,8.39-2.11,2.74-2.28,5.42-.5,7.87,1.17,1.61,2.83,2.63,4.59,3.42,6.02,2.7,12.41,3.21,18.9,3.04.1,0,.25,0,.25-.18-.11-.22-.33-.23-.53-.26-1.73-.28-3.44-.64-5.13-1.1-3.22-.88-6.38-1.92-9.04-4.04-1.69-1.35-2.84-3.04-2.7-5.34.16-2.64,1.66-4.55,3.61-6.09,2.28-1.79,4.99-2.83,7.63-4,.58-.25.65.13.76.52.56,2.04,1.29,4.01,2.2,5.92,2.76,5.72,6.65,10.56,11.32,14.85,4.18,3.84,8.8,7.03,13.7,9.86.27.16.54.45.94.31-.04-.1-.05-.17-.09-.21-.2-.17-.41-.34-.63-.5Z"/>
      <g id="fd2VmF.tif">
        <g>
          <path class="cls-1" d="m42.47,37.81c1.32,0,2.64,0,3.97,0,.78,0,1.56.03,2.34.05.18,0,.36.02.53.02.1,0,.15.03.16.14.06.79.22,1.57.51,2.31.44,1.11,1.12,2.04,2.07,2.76.21.16.41.31.63.46.08.06.09.11.05.2-.26.55-.56,1.08-.85,1.62-.75,1.35-1.51,2.7-2.26,4.06-.47.85-.94,1.7-1.4,2.55-.52.95-1.04,1.91-1.56,2.86-.38.69-.77,1.38-1.15,2.08-.05.09-.1.08-.17.05-.45-.18-.85-.43-1.22-.73-.74-.6-1.51-1.16-2.2-1.82-.59-.57-1.12-1.19-1.66-1.81-.84-.95-1.55-2.01-2.19-3.11-.82-1.41-1.48-2.89-1.97-4.44-.44-1.41-.77-2.85-.92-4.33-.07-.65-.11-1.3-.14-1.96-.01-.24-.03-.48-.05-.72,0-.11.03-.15.14-.15.61-.03,1.23-.03,1.84-.05,1.84-.06,3.68-.05,5.53-.04Z"/>
          <path class="cls-1" d="m55.21,15.99c2.23-.05,4.24.35,6.23.97,1.13.35,2.21.83,3.26,1.37.31.16.61.34.91.53.23.15.24.21.13.45-.32.7-.72,1.35-1.08,2.02-.48.87-.95,1.74-1.44,2.61-.88,1.59-1.76,3.19-2.65,4.77-.62,1.11-1.27,2.19-1.85,3.32-.04.08-.09.11-.18.08-.27-.09-.53-.2-.78-.32-.46-.22-.94-.31-1.44-.38-.87-.11-1.74-.05-2.6.16-.35.08-.67.27-1.01.39-.1.04-.2.06-.31.09-.09.03-.14,0-.18-.08-.59-1.06-1.18-2.11-1.77-3.17-.74-1.33-1.49-2.65-2.22-3.99-.6-1.09-1.18-2.19-1.78-3.28-.42-.76-.85-1.5-1.27-2.25-.05-.1-.1-.2-.15-.3-.05-.09-.02-.13.06-.18.98-.54,1.99-1.04,3.03-1.46.95-.38,1.93-.69,2.93-.91.54-.12,1.08-.16,1.62-.24.51-.07,1.03-.16,1.55-.2.38-.03.76,0,.99-.01Z"/>
          <path class="cls-1" d="m68.71,37.81c2.23,0,4.47,0,6.7,0,.16,0,.31.02.46.05.08.01.11.06.11.14-.01.16,0,.33-.03.49-.05.31-.07.62-.07.93,0,.7-.1,1.38-.2,2.07-.12.84-.28,1.67-.5,2.5-.38,1.44-.9,2.83-1.56,4.17-.71,1.44-1.57,2.79-2.57,4.05-.81,1.02-1.7,1.96-2.69,2.82-.62.54-1.28,1.05-1.96,1.52-.13.09-.27.18-.42.23-.08.03-.13.01-.18-.06-.56-.91-1.07-1.85-1.58-2.78-.48-.86-.97-1.72-1.45-2.58-.45-.8-.89-1.59-1.33-2.39-.7-1.26-1.39-2.51-2.08-3.78-.26-.48-.53-.97-.74-1.48-.07-.17-.07-.18.09-.28,1.41-.86,2.28-2.13,2.73-3.7.17-.58.26-1.16.29-1.76,0-.15.09-.14.2-.14,1.62,0,3.23,0,4.85,0,.65,0,1.29,0,1.94,0h0Z"/>
          <path class="cls-1" d="m59.95,37.81c.02,1.08-.3,2.1-1.01,2.98-.81,1-1.86,1.57-3.15,1.66-1.38.09-2.48-.5-3.41-1.46-.45-.47-.78-1.02-.99-1.63-.2-.6-.23-1.23-.2-1.86.02-.44.1-.87.24-1.28.22-.65.59-1.2,1.06-1.69.63-.66,1.37-1.16,2.29-1.3,1.19-.19,2.31.04,3.3.77.95.7,1.51,1.65,1.8,2.77.08.33.07.67.07,1.06Z"/>
        </g>
      </g>
    </g>
  </g>
</svg>